ISO-10303-21;
HEADER;
FILE_DESCRIPTION(('STEP AP214'),'1');
FILE_NAME('FB_Wurth_WE-MPSA-2220_h3.2.step','2025-06-05T07:46:29',(' '),('ANSOFT Corporation'),'Spatial InterOp 3D',' ',' ');
FILE_SCHEMA(('AUTOMOTIVE_DESIGN { 1 0 10303 214 1 1 1 1 }'));
ENDSEC;
DATA;
#1=MECHANICAL_DESIGN_GEOMETRIC_PRESENTATION_REPRESENTATION(' ',(#12,#13,#14),#8);
#2=PRODUCT_DEFINITION_CONTEXT('',#15,'design');
#3=APPLICATION_PROTOCOL_DEFINITION('INTERNATIONAL STANDARD','automotive_design',1994,#15);
#4=PRODUCT_CATEGORY_RELATIONSHIP('NONE','NONE',#16,#17);
#5=SHAPE_DEFINITION_REPRESENTATION(#18,#19);
#6=SHAPE_DEFINITION_REPRESENTATION(#18,#20);
#7=SHAPE_DEFINITION_REPRESENTATION(#18,#21);
#8= (GEOMETRIC_REPRESENTATION_CONTEXT(3)GLOBAL_UNCERTAINTY_ASSIGNED_CONTEXT((#24))GLOBAL_UNIT_ASSIGNED_CONTEXT((#26,#27,#28))REPRESENTATION_CONTEXT('NONE','WORKSPACE'));
#12=STYLED_ITEM('',(#30),#31);
#13=STYLED_ITEM('',(#32),#33);
#14=STYLED_ITEM('',(#34),#35);
#15=APPLICATION_CONTEXT(' ');
#16=PRODUCT_CATEGORY('part','NONE');
#17=PRODUCT_RELATED_PRODUCT_CATEGORY('detail',' ',(#36));
#18=PRODUCT_DEFINITION_SHAPE('NONE','NONE',#37);
#19=ADVANCED_BREP_SHAPE_REPRESENTATION('Base',(#31,#38),#8);
#20=ADVANCED_BREP_SHAPE_REPRESENTATION('Base_1',(#33,#39),#8);
#21=ADVANCED_BREP_SHAPE_REPRESENTATION('Ferrite',(#35,#40),#8);
#24=UNCERTAINTY_MEASURE_WITH_UNIT(LENGTH_MEASURE(0.001),#26,'','');
#26= (CONVERSION_BASED_UNIT('MILLIMETRE',#43)LENGTH_UNIT()NAMED_UNIT(#46));
#27= (NAMED_UNIT(#48)PLANE_ANGLE_UNIT()SI_UNIT($,.RADIAN.));
#28= (NAMED_UNIT(#48)SOLID_ANGLE_UNIT()SI_UNIT($,.STERADIAN.));
#30=PRESENTATION_STYLE_ASSIGNMENT((#54));
#31=MANIFOLD_SOLID_BREP('Base',#55);
#32=PRESENTATION_STYLE_ASSIGNMENT((#56));
#33=MANIFOLD_SOLID_BREP('Base_1',#57);
#34=PRESENTATION_STYLE_ASSIGNMENT((#58));
#35=MANIFOLD_SOLID_BREP('Ferrite',#59);
#36=PRODUCT('Base','','PART--DESC',(#60));
#37=PRODUCT_DEFINITION('','NONE',#61,#2);
#38=AXIS2_PLACEMENT_3D('',#62,#63,#64);
#39=AXIS2_PLACEMENT_3D('',#65,#66,#67);
#40=AXIS2_PLACEMENT_3D('',#68,#69,#70);
#43=LENGTH_MEASURE_WITH_UNIT(LENGTH_MEASURE(1.0),#71);
#46=DIMENSIONAL_EXPONENTS(1.0,0.0,0.0,0.0,0.0,0.0,0.0);
#48=DIMENSIONAL_EXPONENTS(0.0,0.0,0.0,0.0,0.0,0.0,0.0);
#54=SURFACE_STYLE_USAGE(.BOTH.,#72);
#55=CLOSED_SHELL('',(#73,#74,#75,#76,#77,#78,#79,#80,#81,#82,#83,#84,#85,#86,#87,#88,#89,#90));
#56=SURFACE_STYLE_USAGE(.BOTH.,#91);
#57=CLOSED_SHELL('',(#92,#93,#94,#95,#96,#97,#98,#99,#100,#101,#102,#103,#104,#105,#106,#107,#108,#109));
#58=SURFACE_STYLE_USAGE(.BOTH.,#110);
#59=CLOSED_SHELL('',(#111,#112,#113,#114,#115,#116,#117,#118,#119,#120));
#60=PRODUCT_CONTEXT('',#15,'mechanical');
#61=PRODUCT_DEFINITION_FORMATION_WITH_SPECIFIED_SOURCE(' ','NONE',#36,.NOT_KNOWN.);
#62=CARTESIAN_POINT('',(0.0,0.0,0.0));
#63=DIRECTION('',(0.0,0.0,1.0));
#64=DIRECTION('',(1.0,0.0,0.0));
#65=CARTESIAN_POINT('',(0.0,0.0,0.0));
#66=DIRECTION('',(0.0,0.0,1.0));
#67=DIRECTION('',(1.0,0.0,0.0));
#68=CARTESIAN_POINT('',(0.0,0.0,0.0));
#69=DIRECTION('',(0.0,0.0,1.0));
#70=DIRECTION('',(1.0,0.0,0.0));
#71= (NAMED_UNIT(#46)LENGTH_UNIT()SI_UNIT(.MILLI.,.METRE.));
#72=SURFACE_SIDE_STYLE('',(#122));
#73=ADVANCED_FACE('',(#123),#124,.F.);
#74=ADVANCED_FACE('',(#125),#126,.T.);
#75=ADVANCED_FACE('',(#127),#128,.T.);
#76=ADVANCED_FACE('',(#129),#130,.T.);
#77=ADVANCED_FACE('',(#131),#132,.T.);
#78=ADVANCED_FACE('',(#133),#134,.T.);
#79=ADVANCED_FACE('',(#135),#136,.F.);
#80=ADVANCED_FACE('',(#137),#138,.T.);
#81=ADVANCED_FACE('',(#139),#140,.F.);
#82=ADVANCED_FACE('',(#141),#142,.T.);
#83=ADVANCED_FACE('',(#143),#144,.T.);
#84=ADVANCED_FACE('',(#145),#146,.T.);
#85=ADVANCED_FACE('',(#147),#148,.T.);
#86=ADVANCED_FACE('',(#149),#150,.T.);
#87=ADVANCED_FACE('',(#151),#152,.F.);
#88=ADVANCED_FACE('',(#153),#154,.T.);
#89=ADVANCED_FACE('',(#155),#156,.T.);
#90=ADVANCED_FACE('',(#157),#158,.F.);
#91=SURFACE_SIDE_STYLE('',(#159));
#92=ADVANCED_FACE('',(#160),#161,.F.);
#93=ADVANCED_FACE('',(#162),#163,.T.);
#94=ADVANCED_FACE('',(#164),#165,.T.);
#95=ADVANCED_FACE('',(#166),#167,.T.);
#96=ADVANCED_FACE('',(#168),#169,.F.);
#97=ADVANCED_FACE('',(#170),#171,.F.);
#98=ADVANCED_FACE('',(#172),#173,.T.);
#99=ADVANCED_FACE('',(#174),#175,.T.);
#100=ADVANCED_FACE('',(#176),#177,.T.);
#101=ADVANCED_FACE('',(#178),#179,.F.);
#102=ADVANCED_FACE('',(#180),#181,.T.);
#103=ADVANCED_FACE('',(#182),#183,.T.);
#104=ADVANCED_FACE('',(#184),#185,.T.);
#105=ADVANCED_FACE('',(#186),#187,.T.);
#106=ADVANCED_FACE('',(#188),#189,.T.);
#107=ADVANCED_FACE('',(#190),#191,.F.);
#108=ADVANCED_FACE('',(#192),#193,.T.);
#109=ADVANCED_FACE('',(#194),#195,.T.);
#110=SURFACE_SIDE_STYLE('',(#196));
#111=ADVANCED_FACE('',(#197),#198,.F.);
#112=ADVANCED_FACE('',(#199),#200,.T.);
#113=ADVANCED_FACE('',(#201),#202,.F.);
#114=ADVANCED_FACE('',(#203),#204,.T.);
#115=ADVANCED_FACE('',(#205),#206,.T.);
#116=ADVANCED_FACE('',(#207),#208,.F.);
#117=ADVANCED_FACE('',(#209),#210,.T.);
#118=ADVANCED_FACE('',(#211),#212,.F.);
#119=ADVANCED_FACE('',(#213),#214,.T.);
#120=ADVANCED_FACE('',(#215),#216,.F.);
#122=SURFACE_STYLE_FILL_AREA(#217);
#123=FACE_OUTER_BOUND('',#218,.T.);
#124=PLANE('',#219);
#125=FACE_OUTER_BOUND('',#220,.T.);
#126=CYLINDRICAL_SURFACE('',#221,0.02);
#127=FACE_OUTER_BOUND('',#222,.T.);
#128=SPHERICAL_SURFACE('',#223,0.02);
#129=FACE_OUTER_BOUND('',#224,.T.);
#130=CYLINDRICAL_SURFACE('',#225,0.02);
#131=FACE_OUTER_BOUND('',#226,.T.);
#132=SPHERICAL_SURFACE('',#227,0.02);
#133=FACE_OUTER_BOUND('',#228,.T.);
#134=CYLINDRICAL_SURFACE('',#229,0.02);
#135=FACE_OUTER_BOUND('',#230,.T.);
#136=PLANE('',#231);
#137=FACE_OUTER_BOUND('',#232,.T.);
#138=CYLINDRICAL_SURFACE('',#233,0.02);
#139=FACE_OUTER_BOUND('',#234,.T.);
#140=PLANE('',#235);
#141=FACE_OUTER_BOUND('',#236,.T.);
#142=CYLINDRICAL_SURFACE('',#237,0.02);
#143=FACE_OUTER_BOUND('',#238,.T.);
#144=PLANE('',#239);
#145=FACE_OUTER_BOUND('',#240,.T.);
#146=SPHERICAL_SURFACE('',#241,0.02);
#147=FACE_OUTER_BOUND('',#242,.T.);
#148=CYLINDRICAL_SURFACE('',#243,0.02);
#149=FACE_OUTER_BOUND('',#244,.T.);
#150=CYLINDRICAL_SURFACE('',#245,0.02);
#151=FACE_OUTER_BOUND('',#246,.T.);
#152=PLANE('',#247);
#153=FACE_OUTER_BOUND('',#248,.T.);
#154=SPHERICAL_SURFACE('',#249,0.02);
#155=FACE_OUTER_BOUND('',#250,.T.);
#156=CYLINDRICAL_SURFACE('',#251,0.02);
#157=FACE_OUTER_BOUND('',#252,.T.);
#158=PLANE('',#253);
#159=SURFACE_STYLE_FILL_AREA(#254);
#160=FACE_OUTER_BOUND('',#255,.T.);
#161=PLANE('',#256);
#162=FACE_OUTER_BOUND('',#257,.T.);
#163=CYLINDRICAL_SURFACE('',#258,0.02);
#164=FACE_OUTER_BOUND('',#259,.T.);
#165=SPHERICAL_SURFACE('',#260,0.02);
#166=FACE_OUTER_BOUND('',#261,.T.);
#167=CYLINDRICAL_SURFACE('',#262,0.02);
#168=FACE_OUTER_BOUND('',#263,.T.);
#169=PLANE('',#264);
#170=FACE_OUTER_BOUND('',#265,.T.);
#171=PLANE('',#266);
#172=FACE_OUTER_BOUND('',#267,.T.);
#173=CYLINDRICAL_SURFACE('',#268,0.02);
#174=FACE_OUTER_BOUND('',#269,.T.);
#175=PLANE('',#270);
#176=FACE_OUTER_BOUND('',#271,.T.);
#177=SPHERICAL_SURFACE('',#272,0.02);
#178=FACE_OUTER_BOUND('',#273,.T.);
#179=PLANE('',#274);
#180=FACE_OUTER_BOUND('',#275,.T.);
#181=CYLINDRICAL_SURFACE('',#276,0.02);
#182=FACE_OUTER_BOUND('',#277,.T.);
#183=SPHERICAL_SURFACE('',#278,0.02);
#184=FACE_OUTER_BOUND('',#279,.T.);
#185=CYLINDRICAL_SURFACE('',#280,0.02);
#186=FACE_OUTER_BOUND('',#281,.T.);
#187=SPHERICAL_SURFACE('',#282,0.02);
#188=FACE_OUTER_BOUND('',#283,.T.);
#189=CYLINDRICAL_SURFACE('',#284,0.02);
#190=FACE_OUTER_BOUND('',#285,.T.);
#191=PLANE('',#286);
#192=FACE_OUTER_BOUND('',#287,.T.);
#193=CYLINDRICAL_SURFACE('',#288,0.02);
#194=FACE_OUTER_BOUND('',#289,.T.);
#195=CYLINDRICAL_SURFACE('',#290,0.02);
#196=SURFACE_STYLE_FILL_AREA(#291);
#197=FACE_OUTER_BOUND('',#292,.T.);
#198=PLANE('',#293);
#199=FACE_OUTER_BOUND('',#294,.T.);
#200=CYLINDRICAL_SURFACE('',#295,0.02);
#201=FACE_OUTER_BOUND('',#296,.T.);
#202=PLANE('',#297);
#203=FACE_OUTER_BOUND('',#298,.T.);
#204=PLANE('',#299);
#205=FACE_OUTER_BOUND('',#300,.T.);
#206=CYLINDRICAL_SURFACE('',#301,0.02);
#207=FACE_OUTER_BOUND('',#302,.T.);
#208=PLANE('',#303);
#209=FACE_OUTER_BOUND('',#304,.T.);
#210=CYLINDRICAL_SURFACE('',#305,0.02);
#211=FACE_OUTER_BOUND('',#306,.T.);
#212=PLANE('',#307);
#213=FACE_OUTER_BOUND('',#308,.T.);
#214=CYLINDRICAL_SURFACE('',#309,0.02);
#215=FACE_OUTER_BOUND('',#310,.T.);
#216=PLANE('',#311);
#217=FILL_AREA_STYLE('',(#312));
#218=EDGE_LOOP('',(#313,#314,#315,#316));
#219=AXIS2_PLACEMENT_3D('',#317,#318,#319);
#220=EDGE_LOOP('',(#320,#321,#322,#323));
#221=AXIS2_PLACEMENT_3D('',#324,#325,#326);
#222=EDGE_LOOP('',(#327,#328,#329));
#223=AXIS2_PLACEMENT_3D('',#330,#331,#332);
#224=EDGE_LOOP('',(#333,#334,#335,#336));
#225=AXIS2_PLACEMENT_3D('',#337,#338,#339);
#226=EDGE_LOOP('',(#340,#341,#342));
#227=AXIS2_PLACEMENT_3D('',#343,#344,#345);
#228=EDGE_LOOP('',(#346,#347,#348,#349));
#229=AXIS2_PLACEMENT_3D('',#350,#351,#352);
#230=EDGE_LOOP('',(#353,#354,#355,#356));
#231=AXIS2_PLACEMENT_3D('',#357,#358,#359);
#232=EDGE_LOOP('',(#360,#361,#362,#363));
#233=AXIS2_PLACEMENT_3D('',#364,#365,#366);
#234=EDGE_LOOP('',(#367,#368,#369,#370));
#235=AXIS2_PLACEMENT_3D('',#371,#372,#373);
#236=EDGE_LOOP('',(#374,#375,#376,#377));
#237=AXIS2_PLACEMENT_3D('',#378,#379,#380);
#238=EDGE_LOOP('',(#381,#382,#383,#384));
#239=AXIS2_PLACEMENT_3D('',#385,#386,#387);
#240=EDGE_LOOP('',(#388,#389,#390));
#241=AXIS2_PLACEMENT_3D('',#391,#392,#393);
#242=EDGE_LOOP('',(#394,#395,#396,#397));
#243=AXIS2_PLACEMENT_3D('',#398,#399,#400);
#244=EDGE_LOOP('',(#401,#402,#403,#404));
#245=AXIS2_PLACEMENT_3D('',#405,#406,#407);
#246=EDGE_LOOP('',(#408,#409,#410,#411));
#247=AXIS2_PLACEMENT_3D('',#412,#413,#414);
#248=EDGE_LOOP('',(#415,#416,#417));
#249=AXIS2_PLACEMENT_3D('',#418,#419,#420);
#250=EDGE_LOOP('',(#421,#422,#423,#424));
#251=AXIS2_PLACEMENT_3D('',#425,#426,#427);
#252=EDGE_LOOP('',(#428,#429,#430,#431,#432,#433,#434,#435));
#253=AXIS2_PLACEMENT_3D('',#436,#437,#438);
#254=FILL_AREA_STYLE('',(#439));
#255=EDGE_LOOP('',(#440,#441,#442,#443));
#256=AXIS2_PLACEMENT_3D('',#444,#445,#446);
#257=EDGE_LOOP('',(#447,#448,#449,#450));
#258=AXIS2_PLACEMENT_3D('',#451,#452,#453);
#259=EDGE_LOOP('',(#454,#455,#456));
#260=AXIS2_PLACEMENT_3D('',#457,#458,#459);
#261=EDGE_LOOP('',(#460,#461,#462,#463));
#262=AXIS2_PLACEMENT_3D('',#464,#465,#466);
#263=EDGE_LOOP('',(#467,#468,#469,#470));
#264=AXIS2_PLACEMENT_3D('',#471,#472,#473);
#265=EDGE_LOOP('',(#474,#475,#476,#477,#478,#479,#480,#481));
#266=AXIS2_PLACEMENT_3D('',#482,#483,#484);
#267=EDGE_LOOP('',(#485,#486,#487,#488));
#268=AXIS2_PLACEMENT_3D('',#489,#490,#491);
#269=EDGE_LOOP('',(#492,#493,#494,#495));
#270=AXIS2_PLACEMENT_3D('',#496,#497,#498);
#271=EDGE_LOOP('',(#499,#500,#501));
#272=AXIS2_PLACEMENT_3D('',#502,#503,#504);
#273=EDGE_LOOP('',(#505,#506,#507,#508));
#274=AXIS2_PLACEMENT_3D('',#509,#510,#511);
#275=EDGE_LOOP('',(#512,#513,#514,#515));
#276=AXIS2_PLACEMENT_3D('',#516,#517,#518);
#277=EDGE_LOOP('',(#519,#520,#521));
#278=AXIS2_PLACEMENT_3D('',#522,#523,#524);
#279=EDGE_LOOP('',(#525,#526,#527,#528));
#280=AXIS2_PLACEMENT_3D('',#529,#530,#531);
#281=EDGE_LOOP('',(#532,#533,#534));
#282=AXIS2_PLACEMENT_3D('',#535,#536,#537);
#283=EDGE_LOOP('',(#538,#539,#540,#541));
#284=AXIS2_PLACEMENT_3D('',#542,#543,#544);
#285=EDGE_LOOP('',(#545,#546,#547,#548));
#286=AXIS2_PLACEMENT_3D('',#549,#550,#551);
#287=EDGE_LOOP('',(#552,#553,#554,#555));
#288=AXIS2_PLACEMENT_3D('',#556,#557,#558);
#289=EDGE_LOOP('',(#559,#560,#561,#562));
#290=AXIS2_PLACEMENT_3D('',#563,#564,#565);
#291=FILL_AREA_STYLE('',(#566));
#292=EDGE_LOOP('',(#567,#568,#569,#570));
#293=AXIS2_PLACEMENT_3D('',#571,#572,#573);
#294=EDGE_LOOP('',(#574,#575,#576,#577));
#295=AXIS2_PLACEMENT_3D('',#578,#579,#580);
#296=EDGE_LOOP('',(#581,#582,#583,#584,#585,#586,#587,#588));
#297=AXIS2_PLACEMENT_3D('',#589,#590,#591);
#298=EDGE_LOOP('',(#592,#593,#594,#595));
#299=AXIS2_PLACEMENT_3D('',#596,#597,#598);
#300=EDGE_LOOP('',(#599,#600,#601,#602));
#301=AXIS2_PLACEMENT_3D('',#603,#604,#605);
#302=EDGE_LOOP('',(#606,#607,#608,#609,#610,#611,#612,#613));
#303=AXIS2_PLACEMENT_3D('',#614,#615,#616);
#304=EDGE_LOOP('',(#617,#618,#619,#620));
#305=AXIS2_PLACEMENT_3D('',#621,#622,#623);
#306=EDGE_LOOP('',(#624,#625,#626,#627));
#307=AXIS2_PLACEMENT_3D('',#628,#629,#630);
#308=EDGE_LOOP('',(#631,#632,#633,#634));
#309=AXIS2_PLACEMENT_3D('',#635,#636,#637);
#310=EDGE_LOOP('',(#638,#639,#640,#641));
#311=AXIS2_PLACEMENT_3D('',#642,#643,#644);
#312=FILL_AREA_STYLE_COLOUR('',#645);
#313=ORIENTED_EDGE('',*,*,#646,.T.);
#314=ORIENTED_EDGE('',*,*,#647,.T.);
#315=ORIENTED_EDGE('',*,*,#648,.T.);
#316=ORIENTED_EDGE('',*,*,#649,.T.);
#317=CARTESIAN_POINT('',(2.795,-2.54,1.8));
#318=DIRECTION('',(-1.60812264967664E-16,1.0,0.0));
#319=DIRECTION('',(1.0,1.60812264967664E-16,-0.0));
#320=ORIENTED_EDGE('',*,*,#650,.F.);
#321=ORIENTED_EDGE('',*,*,#651,.F.);
#322=ORIENTED_EDGE('',*,*,#652,.F.);
#323=ORIENTED_EDGE('',*,*,#649,.F.);
#324=CARTESIAN_POINT('',(2.795,-2.52,3.18));
#325=DIRECTION('',(1.0,1.60812264967664E-16,-0.0));
#326=DIRECTION('',(0.0,0.0,1.0));
#327=ORIENTED_EDGE('',*,*,#653,.F.);
#328=ORIENTED_EDGE('',*,*,#650,.T.);
#329=ORIENTED_EDGE('',*,*,#654,.F.);
#330=CARTESIAN_POINT('',(2.775,-2.52,3.18));
#331=DIRECTION('',(0.0,0.0,1.0));
#332=DIRECTION('',(-1.60812264967664E-16,1.0,0.0));
#333=ORIENTED_EDGE('',*,*,#653,.T.);
#334=ORIENTED_EDGE('',*,*,#655,.F.);
#335=ORIENTED_EDGE('',*,*,#656,.F.);
#336=ORIENTED_EDGE('',*,*,#657,.F.);
#337=CARTESIAN_POINT('',(2.775,-2.54,3.18));
#338=DIRECTION('',(1.60812264967664E-16,-1.0,-0.0));
#339=DIRECTION('',(-0.0,0.0,-1.0));
#340=ORIENTED_EDGE('',*,*,#658,.T.);
#341=ORIENTED_EDGE('',*,*,#656,.T.);
#342=ORIENTED_EDGE('',*,*,#659,.F.);
#343=CARTESIAN_POINT('',(2.775,2.52,3.18));
#344=DIRECTION('',(0.0,0.0,1.0));
#345=DIRECTION('',(-1.60812264967664E-16,1.0,0.0));
#346=ORIENTED_EDGE('',*,*,#660,.F.);
#347=ORIENTED_EDGE('',*,*,#661,.F.);
#348=ORIENTED_EDGE('',*,*,#658,.F.);
#349=ORIENTED_EDGE('',*,*,#662,.F.);
#350=CARTESIAN_POINT('',(2.795,2.52,3.18));
#351=DIRECTION('',(1.0,1.60812264967664E-16,-0.0));
#352=DIRECTION('',(0.0,0.0,1.0));
#353=ORIENTED_EDGE('',*,*,#657,.T.);
#354=ORIENTED_EDGE('',*,*,#661,.T.);
#355=ORIENTED_EDGE('',*,*,#663,.T.);
#356=ORIENTED_EDGE('',*,*,#651,.T.);
#357=CARTESIAN_POINT('',(2.795,2.54,3.2));
#358=DIRECTION('',(0.0,0.0,-1.0));
#359=DIRECTION('',(0.0,-1.0,0.0));
#360=ORIENTED_EDGE('',*,*,#664,.T.);
#361=ORIENTED_EDGE('',*,*,#665,.F.);
#362=ORIENTED_EDGE('',*,*,#666,.F.);
#363=ORIENTED_EDGE('',*,*,#667,.F.);
#364=CARTESIAN_POINT('',(2.795,2.52,0.0200000000000009));
#365=DIRECTION('',(1.0,1.60812264967664E-16,-0.0));
#366=DIRECTION('',(0.0,0.0,1.0));
#367=ORIENTED_EDGE('',*,*,#668,.T.);
#368=ORIENTED_EDGE('',*,*,#667,.T.);
#369=ORIENTED_EDGE('',*,*,#669,.T.);
#370=ORIENTED_EDGE('',*,*,#662,.T.);
#371=CARTESIAN_POINT('',(2.795,2.54,6.93889390390723E-16));
#372=DIRECTION('',(1.60812264967664E-16,-1.0,0.0));
#373=DIRECTION('',(0.0,0.0,-1.0));
#374=ORIENTED_EDGE('',*,*,#670,.T.);
#375=ORIENTED_EDGE('',*,*,#671,.F.);
#376=ORIENTED_EDGE('',*,*,#672,.F.);
#377=ORIENTED_EDGE('',*,*,#673,.F.);
#378=CARTESIAN_POINT('',(2.775,-2.54,0.0200000000000009));
#379=DIRECTION('',(-1.60812264967664E-16,1.0,0.0));
#380=DIRECTION('',(0.0,0.0,1.0));
#381=ORIENTED_EDGE('',*,*,#674,.T.);
#382=ORIENTED_EDGE('',*,*,#673,.T.);
#383=ORIENTED_EDGE('',*,*,#675,.T.);
#384=ORIENTED_EDGE('',*,*,#655,.T.);
#385=CARTESIAN_POINT('',(2.795,-2.54,6.93889390390723E-16));
#386=DIRECTION('',(1.0,1.60812264967664E-16,0.0));
#387=DIRECTION('',(-1.60812264967664E-16,1.0,0.0));
#388=ORIENTED_EDGE('',*,*,#676,.T.);
#389=ORIENTED_EDGE('',*,*,#677,.T.);
#390=ORIENTED_EDGE('',*,*,#670,.F.);
#391=CARTESIAN_POINT('',(2.775,-2.52,0.0200000000000009));
#392=DIRECTION('',(0.0,0.0,1.0));
#393=DIRECTION('',(-1.60812264967664E-16,1.0,0.0));
#394=ORIENTED_EDGE('',*,*,#678,.F.);
#395=ORIENTED_EDGE('',*,*,#679,.F.);
#396=ORIENTED_EDGE('',*,*,#677,.F.);
#397=ORIENTED_EDGE('',*,*,#647,.F.);
#398=CARTESIAN_POINT('',(2.795,-2.52,0.0200000000000009));
#399=DIRECTION('',(1.0,1.60812264967664E-16,-0.0));
#400=DIRECTION('',(0.0,0.0,1.0));
#401=ORIENTED_EDGE('',*,*,#654,.T.);
#402=ORIENTED_EDGE('',*,*,#648,.F.);
#403=ORIENTED_EDGE('',*,*,#676,.F.);
#404=ORIENTED_EDGE('',*,*,#674,.F.);
#405=CARTESIAN_POINT('',(2.775,-2.52,6.93889390390723E-16));
#406=DIRECTION('',(0.0,0.0,-1.0));
#407=DIRECTION('',(-1.60812264967664E-16,1.0,0.0));
#408=ORIENTED_EDGE('',*,*,#680,.T.);
#409=ORIENTED_EDGE('',*,*,#665,.T.);
#410=ORIENTED_EDGE('',*,*,#671,.T.);
#411=ORIENTED_EDGE('',*,*,#679,.T.);
#412=CARTESIAN_POINT('',(2.795,-2.54,6.93889390390723E-16));
#413=DIRECTION('',(0.0,0.0,1.0));
#414=DIRECTION('',(1.0,0.0,0.0));
#415=ORIENTED_EDGE('',*,*,#681,.T.);
#416=ORIENTED_EDGE('',*,*,#672,.T.);
#417=ORIENTED_EDGE('',*,*,#664,.F.);
#418=CARTESIAN_POINT('',(2.775,2.52,0.0200000000000009));
#419=DIRECTION('',(0.0,0.0,1.0));
#420=DIRECTION('',(-1.60812264967664E-16,1.0,0.0));
#421=ORIENTED_EDGE('',*,*,#659,.T.);
#422=ORIENTED_EDGE('',*,*,#675,.F.);
#423=ORIENTED_EDGE('',*,*,#681,.F.);
#424=ORIENTED_EDGE('',*,*,#668,.F.);
#425=CARTESIAN_POINT('',(2.775,2.52,6.93889390390723E-16));
#426=DIRECTION('',(-0.0,0.0,1.0));
#427=DIRECTION('',(1.60812264967664E-16,-1.0,0.0));
#428=ORIENTED_EDGE('',*,*,#669,.F.);
#429=ORIENTED_EDGE('',*,*,#666,.T.);
#430=ORIENTED_EDGE('',*,*,#680,.F.);
#431=ORIENTED_EDGE('',*,*,#678,.T.);
#432=ORIENTED_EDGE('',*,*,#646,.F.);
#433=ORIENTED_EDGE('',*,*,#652,.T.);
#434=ORIENTED_EDGE('',*,*,#663,.F.);
#435=ORIENTED_EDGE('',*,*,#660,.T.);
#436=CARTESIAN_POINT('',(2.035,-2.54,6.93889390390723E-16));
#437=DIRECTION('',(1.0,1.60812264967664E-16,0.0));
#438=DIRECTION('',(-1.60812264967664E-16,1.0,0.0));
#439=FILL_AREA_STYLE_COLOUR('',#682);
#440=ORIENTED_EDGE('',*,*,#683,.T.);
#441=ORIENTED_EDGE('',*,*,#684,.T.);
#442=ORIENTED_EDGE('',*,*,#685,.T.);
#443=ORIENTED_EDGE('',*,*,#686,.T.);
#444=CARTESIAN_POINT('',(-2.795,2.54,1.8));
#445=DIRECTION('',(1.0416222542826E-16,-1.0,-6.93889390390723E-18));
#446=DIRECTION('',(0.0,6.93889390390723E-18,-1.0));
#447=ORIENTED_EDGE('',*,*,#687,.F.);
#448=ORIENTED_EDGE('',*,*,#688,.F.);
#449=ORIENTED_EDGE('',*,*,#689,.F.);
#450=ORIENTED_EDGE('',*,*,#686,.F.);
#451=CARTESIAN_POINT('',(-2.795,2.52,3.18));
#452=DIRECTION('',(-1.0,-1.0416222542826E-16,-3.69762521412343E-17));
#453=DIRECTION('',(-3.69762521412343E-17,-6.93889390390724E-18,1.0));
#454=ORIENTED_EDGE('',*,*,#690,.T.);
#455=ORIENTED_EDGE('',*,*,#691,.T.);
#456=ORIENTED_EDGE('',*,*,#692,.F.);
#457=CARTESIAN_POINT('',(-2.775,-2.52,0.0199999999999999));
#458=DIRECTION('',(-3.69762521412343E-17,-6.93889390390724E-18,1.0));
#459=DIRECTION('',(1.0416222542826E-16,-1.0,-6.93889390390724E-18));
#460=ORIENTED_EDGE('',*,*,#693,.F.);
#461=ORIENTED_EDGE('',*,*,#694,.F.);
#462=ORIENTED_EDGE('',*,*,#695,.F.);
#463=ORIENTED_EDGE('',*,*,#684,.F.);
#464=CARTESIAN_POINT('',(-2.795,2.52,0.0199999999999999));
#465=DIRECTION('',(-1.0,-1.0416222542826E-16,-3.69762521412343E-17));
#466=DIRECTION('',(-3.69762521412343E-17,-6.93889390390724E-18,1.0));
#467=ORIENTED_EDGE('',*,*,#696,.T.);
#468=ORIENTED_EDGE('',*,*,#697,.T.);
#469=ORIENTED_EDGE('',*,*,#698,.T.);
#470=ORIENTED_EDGE('',*,*,#694,.T.);
#471=CARTESIAN_POINT('',(-2.795,2.54,-3.46944695195361E-16));
#472=DIRECTION('',(-3.69762521412343E-17,-6.93889390390724E-18,1.0));
#473=DIRECTION('',(1.0,0.0,3.69762521412343E-17));
#474=ORIENTED_EDGE('',*,*,#699,.F.);
#475=ORIENTED_EDGE('',*,*,#700,.T.);
#476=ORIENTED_EDGE('',*,*,#696,.F.);
#477=ORIENTED_EDGE('',*,*,#693,.T.);
#478=ORIENTED_EDGE('',*,*,#683,.F.);
#479=ORIENTED_EDGE('',*,*,#689,.T.);
#480=ORIENTED_EDGE('',*,*,#701,.F.);
#481=ORIENTED_EDGE('',*,*,#702,.T.);
#482=CARTESIAN_POINT('',(-2.035,2.54,-3.46944695195361E-16));
#483=DIRECTION('',(-1.0,-1.0416222542826E-16,-3.69762521412343E-17));
#484=DIRECTION('',(-1.0416222542826E-16,1.0,0.0));
#485=ORIENTED_EDGE('',*,*,#703,.T.);
#486=ORIENTED_EDGE('',*,*,#685,.F.);
#487=ORIENTED_EDGE('',*,*,#704,.F.);
#488=ORIENTED_EDGE('',*,*,#705,.F.);
#489=CARTESIAN_POINT('',(-2.775,2.52,-3.46944695195361E-16));
#490=DIRECTION('',(3.69762521412343E-17,6.93889390390723E-18,-1.0));
#491=DIRECTION('',(1.0416222542826E-16,-1.0,-6.93889390390723E-18));
#492=ORIENTED_EDGE('',*,*,#705,.T.);
#493=ORIENTED_EDGE('',*,*,#706,.T.);
#494=ORIENTED_EDGE('',*,*,#707,.T.);
#495=ORIENTED_EDGE('',*,*,#708,.T.);
#496=CARTESIAN_POINT('',(-2.795,2.54,-3.46944695195361E-16));
#497=DIRECTION('',(-1.0,-1.0416222542826E-16,-3.69762521412343E-17));
#498=DIRECTION('',(-1.0416222542826E-16,1.0,0.0));
#499=ORIENTED_EDGE('',*,*,#704,.T.);
#500=ORIENTED_EDGE('',*,*,#695,.T.);
#501=ORIENTED_EDGE('',*,*,#709,.F.);
#502=CARTESIAN_POINT('',(-2.775,2.52,0.0199999999999999));
#503=DIRECTION('',(-3.69762521412343E-17,-6.93889390390724E-18,1.0));
#504=DIRECTION('',(1.0416222542826E-16,-1.0,-6.93889390390724E-18));
#505=ORIENTED_EDGE('',*,*,#710,.T.);
#506=ORIENTED_EDGE('',*,*,#711,.T.);
#507=ORIENTED_EDGE('',*,*,#699,.T.);
#508=ORIENTED_EDGE('',*,*,#712,.T.);
#509=CARTESIAN_POINT('',(-2.795,-2.54,-3.46944695195361E-16));
#510=DIRECTION('',(-1.0416222542826E-16,1.0,6.93889390390723E-18));
#511=DIRECTION('',(1.0,1.0416222542826E-16,-0.0));
#512=ORIENTED_EDGE('',*,*,#692,.T.);
#513=ORIENTED_EDGE('',*,*,#697,.F.);
#514=ORIENTED_EDGE('',*,*,#700,.F.);
#515=ORIENTED_EDGE('',*,*,#711,.F.);
#516=CARTESIAN_POINT('',(-2.795,-2.52,0.0199999999999999));
#517=DIRECTION('',(-1.0,-1.0416222542826E-16,-3.69762521412343E-17));
#518=DIRECTION('',(-3.69762521412343E-17,-6.93889390390724E-18,1.0));
#519=ORIENTED_EDGE('',*,*,#713,.F.);
#520=ORIENTED_EDGE('',*,*,#687,.T.);
#521=ORIENTED_EDGE('',*,*,#703,.F.);
#522=CARTESIAN_POINT('',(-2.775,2.52,3.18));
#523=DIRECTION('',(-3.69762521412343E-17,-6.93889390390724E-18,1.0));
#524=DIRECTION('',(1.0416222542826E-16,-1.0,-6.93889390390724E-18));
#525=ORIENTED_EDGE('',*,*,#713,.T.);
#526=ORIENTED_EDGE('',*,*,#708,.F.);
#527=ORIENTED_EDGE('',*,*,#714,.F.);
#528=ORIENTED_EDGE('',*,*,#715,.F.);
#529=CARTESIAN_POINT('',(-2.775,2.54,3.18));
#530=DIRECTION('',(-1.0416222542826E-16,1.0,6.93889390390722E-18));
#531=DIRECTION('',(3.69762521412343E-17,6.93889390390723E-18,-1.0));
#532=ORIENTED_EDGE('',*,*,#716,.T.);
#533=ORIENTED_EDGE('',*,*,#714,.T.);
#534=ORIENTED_EDGE('',*,*,#717,.F.);
#535=CARTESIAN_POINT('',(-2.775,-2.52,3.18));
#536=DIRECTION('',(-3.69762521412343E-17,-6.93889390390724E-18,1.0));
#537=DIRECTION('',(1.0416222542826E-16,-1.0,-6.93889390390724E-18));
#538=ORIENTED_EDGE('',*,*,#702,.F.);
#539=ORIENTED_EDGE('',*,*,#718,.F.);
#540=ORIENTED_EDGE('',*,*,#716,.F.);
#541=ORIENTED_EDGE('',*,*,#712,.F.);
#542=CARTESIAN_POINT('',(-2.795,-2.52,3.18));
#543=DIRECTION('',(-1.0,-1.0416222542826E-16,-3.69762521412343E-17));
#544=DIRECTION('',(-3.69762521412343E-17,-6.93889390390724E-18,1.0));
#545=ORIENTED_EDGE('',*,*,#715,.T.);
#546=ORIENTED_EDGE('',*,*,#718,.T.);
#547=ORIENTED_EDGE('',*,*,#701,.T.);
#548=ORIENTED_EDGE('',*,*,#688,.T.);
#549=CARTESIAN_POINT('',(-2.795,-2.54,3.2));
#550=DIRECTION('',(3.69762521412343E-17,6.93889390390724E-18,-1.0));
#551=DIRECTION('',(0.0,-1.0,-6.93889390390724E-18));
#552=ORIENTED_EDGE('',*,*,#709,.T.);
#553=ORIENTED_EDGE('',*,*,#698,.F.);
#554=ORIENTED_EDGE('',*,*,#691,.F.);
#555=ORIENTED_EDGE('',*,*,#706,.F.);
#556=CARTESIAN_POINT('',(-2.775,2.54,0.0199999999999999));
#557=DIRECTION('',(1.0416222542826E-16,-1.0,-6.93889390390722E-18));
#558=DIRECTION('',(-3.69762521412343E-17,-6.93889390390723E-18,1.0));
#559=ORIENTED_EDGE('',*,*,#717,.T.);
#560=ORIENTED_EDGE('',*,*,#707,.F.);
#561=ORIENTED_EDGE('',*,*,#690,.F.);
#562=ORIENTED_EDGE('',*,*,#710,.F.);
#563=CARTESIAN_POINT('',(-2.775,-2.52,-3.46944695195361E-16));
#564=DIRECTION('',(-3.69762521412343E-17,-6.93889390390723E-18,1.0));
#565=DIRECTION('',(-1.0416222542826E-16,1.0,6.93889390390723E-18));
#566=FILL_AREA_STYLE_COLOUR('',#719);
#567=ORIENTED_EDGE('',*,*,#720,.F.);
#568=ORIENTED_EDGE('',*,*,#721,.T.);
#569=ORIENTED_EDGE('',*,*,#722,.T.);
#570=ORIENTED_EDGE('',*,*,#723,.T.);
#571=CARTESIAN_POINT('',(-2.035,-2.54,1.8));
#572=DIRECTION('',(-1.60812264967664E-16,1.0,0.0));
#573=DIRECTION('',(1.0,1.60812264967664E-16,-0.0));
#574=ORIENTED_EDGE('',*,*,#724,.F.);
#575=ORIENTED_EDGE('',*,*,#721,.F.);
#576=ORIENTED_EDGE('',*,*,#725,.F.);
#577=ORIENTED_EDGE('',*,*,#726,.F.);
#578=CARTESIAN_POINT('',(2.035,-2.52,3.18));
#579=DIRECTION('',(1.0,1.60812264967664E-16,-0.0));
#580=DIRECTION('',(0.0,0.0,1.0));
#581=ORIENTED_EDGE('',*,*,#727,.F.);
#582=ORIENTED_EDGE('',*,*,#725,.T.);
#583=ORIENTED_EDGE('',*,*,#720,.T.);
#584=ORIENTED_EDGE('',*,*,#728,.T.);
#585=ORIENTED_EDGE('',*,*,#729,.T.);
#586=ORIENTED_EDGE('',*,*,#730,.T.);
#587=ORIENTED_EDGE('',*,*,#731,.F.);
#588=ORIENTED_EDGE('',*,*,#732,.T.);
#589=CARTESIAN_POINT('',(2.035,-2.54,1.8));
#590=DIRECTION('',(-1.0,-1.60812264967664E-16,0.0));
#591=DIRECTION('',(-1.60812264967664E-16,1.0,0.0));
#592=ORIENTED_EDGE('',*,*,#733,.T.);
#593=ORIENTED_EDGE('',*,*,#726,.T.);
#594=ORIENTED_EDGE('',*,*,#727,.T.);
#595=ORIENTED_EDGE('',*,*,#734,.T.);
#596=CARTESIAN_POINT('',(2.035,-2.54,3.2));
#597=DIRECTION('',(0.0,0.0,1.0));
#598=DIRECTION('',(1.0,0.0,0.0));
#599=ORIENTED_EDGE('',*,*,#732,.F.);
#600=ORIENTED_EDGE('',*,*,#735,.F.);
#601=ORIENTED_EDGE('',*,*,#736,.F.);
#602=ORIENTED_EDGE('',*,*,#734,.F.);
#603=CARTESIAN_POINT('',(2.035,2.52,3.18));
#604=DIRECTION('',(-1.0,-1.60812264967664E-16,-0.0));
#605=DIRECTION('',(0.0,0.0,-1.0));
#606=ORIENTED_EDGE('',*,*,#722,.F.);
#607=ORIENTED_EDGE('',*,*,#724,.T.);
#608=ORIENTED_EDGE('',*,*,#733,.F.);
#609=ORIENTED_EDGE('',*,*,#736,.T.);
#610=ORIENTED_EDGE('',*,*,#737,.T.);
#611=ORIENTED_EDGE('',*,*,#738,.T.);
#612=ORIENTED_EDGE('',*,*,#739,.T.);
#613=ORIENTED_EDGE('',*,*,#740,.T.);
#614=CARTESIAN_POINT('',(-2.035,2.54,1.8));
#615=DIRECTION('',(1.0,1.60812264967664E-16,0.0));
#616=DIRECTION('',(-1.60812264967664E-16,1.0,0.0));
#617=ORIENTED_EDGE('',*,*,#740,.F.);
#618=ORIENTED_EDGE('',*,*,#741,.F.);
#619=ORIENTED_EDGE('',*,*,#728,.F.);
#620=ORIENTED_EDGE('',*,*,#723,.F.);
#621=CARTESIAN_POINT('',(-2.035,-2.52,0.0200000000000001));
#622=DIRECTION('',(-1.0,-1.60812264967664E-16,-0.0));
#623=DIRECTION('',(0.0,0.0,-1.0));
#624=ORIENTED_EDGE('',*,*,#731,.T.);
#625=ORIENTED_EDGE('',*,*,#742,.T.);
#626=ORIENTED_EDGE('',*,*,#737,.F.);
#627=ORIENTED_EDGE('',*,*,#735,.T.);
#628=CARTESIAN_POINT('',(2.035,2.54,1.8));
#629=DIRECTION('',(1.60812264967664E-16,-1.0,0.0));
#630=DIRECTION('',(0.0,0.0,-1.0));
#631=ORIENTED_EDGE('',*,*,#730,.F.);
#632=ORIENTED_EDGE('',*,*,#743,.F.);
#633=ORIENTED_EDGE('',*,*,#738,.F.);
#634=ORIENTED_EDGE('',*,*,#742,.F.);
#635=CARTESIAN_POINT('',(2.035,2.52,0.0200000000000001));
#636=DIRECTION('',(1.0,1.60812264967664E-16,-0.0));
#637=DIRECTION('',(0.0,0.0,1.0));
#638=ORIENTED_EDGE('',*,*,#729,.F.);
#639=ORIENTED_EDGE('',*,*,#741,.T.);
#640=ORIENTED_EDGE('',*,*,#739,.F.);
#641=ORIENTED_EDGE('',*,*,#743,.T.);
#642=CARTESIAN_POINT('',(2.035,-2.54,0.0));
#643=DIRECTION('',(0.0,0.0,1.0));
#644=DIRECTION('',(1.0,0.0,0.0));
#645=COLOUR_RGB('',1.0,1.0,1.0);
#646=EDGE_CURVE('',#744,#745,#746,.T.);
#647=EDGE_CURVE('',#745,#747,#748,.T.);
#648=EDGE_CURVE('',#747,#749,#750,.T.);
#649=EDGE_CURVE('',#749,#744,#751,.T.);
#650=EDGE_CURVE('',#752,#749,#753,.T.);
#651=EDGE_CURVE('',#754,#752,#755,.T.);
#652=EDGE_CURVE('',#744,#754,#756,.T.);
#653=EDGE_CURVE('',#752,#757,#758,.T.);
#654=EDGE_CURVE('',#757,#749,#759,.T.);
#655=EDGE_CURVE('',#760,#757,#761,.T.);
#656=EDGE_CURVE('',#762,#760,#763,.T.);
#657=EDGE_CURVE('',#752,#762,#764,.T.);
#658=EDGE_CURVE('',#765,#762,#766,.T.);
#659=EDGE_CURVE('',#765,#760,#767,.T.);
#660=EDGE_CURVE('',#768,#769,#770,.T.);
#661=EDGE_CURVE('',#762,#768,#771,.T.);
#662=EDGE_CURVE('',#769,#765,#772,.T.);
#663=EDGE_CURVE('',#768,#754,#773,.T.);
#664=EDGE_CURVE('',#774,#775,#776,.T.);
#665=EDGE_CURVE('',#777,#775,#778,.T.);
#666=EDGE_CURVE('',#779,#777,#780,.T.);
#667=EDGE_CURVE('',#774,#779,#781,.T.);
#668=EDGE_CURVE('',#765,#774,#782,.T.);
#669=EDGE_CURVE('',#779,#769,#783,.T.);
#670=EDGE_CURVE('',#784,#785,#786,.T.);
#671=EDGE_CURVE('',#775,#785,#787,.T.);
#672=EDGE_CURVE('',#788,#775,#789,.T.);
#673=EDGE_CURVE('',#784,#788,#790,.T.);
#674=EDGE_CURVE('',#757,#784,#791,.T.);
#675=EDGE_CURVE('',#788,#760,#792,.T.);
#676=EDGE_CURVE('',#784,#747,#793,.T.);
#677=EDGE_CURVE('',#747,#785,#794,.T.);
#678=EDGE_CURVE('',#795,#745,#796,.T.);
#679=EDGE_CURVE('',#785,#795,#797,.T.);
#680=EDGE_CURVE('',#795,#777,#798,.T.);
#681=EDGE_CURVE('',#774,#788,#799,.T.);
#682=COLOUR_RGB('',1.0,1.0,1.0);
#683=EDGE_CURVE('',#800,#801,#802,.T.);
#684=EDGE_CURVE('',#801,#803,#804,.T.);
#685=EDGE_CURVE('',#803,#805,#806,.T.);
#686=EDGE_CURVE('',#805,#800,#807,.T.);
#687=EDGE_CURVE('',#808,#805,#809,.T.);
#688=EDGE_CURVE('',#810,#808,#811,.T.);
#689=EDGE_CURVE('',#800,#810,#812,.T.);
#690=EDGE_CURVE('',#813,#814,#815,.T.);
#691=EDGE_CURVE('',#814,#816,#817,.T.);
#692=EDGE_CURVE('',#813,#816,#818,.T.);
#693=EDGE_CURVE('',#819,#801,#820,.T.);
#694=EDGE_CURVE('',#821,#819,#822,.T.);
#695=EDGE_CURVE('',#803,#821,#823,.T.);
#696=EDGE_CURVE('',#819,#824,#825,.T.);
#697=EDGE_CURVE('',#824,#816,#826,.T.);
#698=EDGE_CURVE('',#816,#821,#827,.T.);
#699=EDGE_CURVE('',#828,#829,#830,.T.);
#700=EDGE_CURVE('',#828,#824,#831,.T.);
#701=EDGE_CURVE('',#832,#810,#833,.T.);
#702=EDGE_CURVE('',#832,#829,#834,.T.);
#703=EDGE_CURVE('',#835,#805,#836,.T.);
#704=EDGE_CURVE('',#837,#803,#838,.T.);
#705=EDGE_CURVE('',#835,#837,#839,.T.);
#706=EDGE_CURVE('',#837,#814,#840,.T.);
#707=EDGE_CURVE('',#814,#841,#842,.T.);
#708=EDGE_CURVE('',#841,#835,#843,.T.);
#709=EDGE_CURVE('',#837,#821,#844,.T.);
#710=EDGE_CURVE('',#845,#813,#846,.T.);
#711=EDGE_CURVE('',#813,#828,#847,.T.);
#712=EDGE_CURVE('',#829,#845,#848,.T.);
#713=EDGE_CURVE('',#808,#835,#849,.T.);
#714=EDGE_CURVE('',#850,#841,#851,.T.);
#715=EDGE_CURVE('',#808,#850,#852,.T.);
#716=EDGE_CURVE('',#845,#850,#853,.T.);
#717=EDGE_CURVE('',#845,#841,#854,.T.);
#718=EDGE_CURVE('',#850,#832,#855,.T.);
#719=COLOUR_RGB('',0.0,0.0,0.0);
#720=EDGE_CURVE('',#856,#857,#858,.T.);
#721=EDGE_CURVE('',#856,#859,#860,.T.);
#722=EDGE_CURVE('',#859,#861,#862,.T.);
#723=EDGE_CURVE('',#861,#857,#863,.T.);
#724=EDGE_CURVE('',#859,#864,#865,.T.);
#725=EDGE_CURVE('',#866,#856,#867,.T.);
#726=EDGE_CURVE('',#864,#866,#868,.T.);
#727=EDGE_CURVE('',#866,#869,#870,.T.);
#728=EDGE_CURVE('',#857,#871,#872,.T.);
#729=EDGE_CURVE('',#871,#873,#874,.T.);
#730=EDGE_CURVE('',#873,#875,#876,.T.);
#731=EDGE_CURVE('',#877,#875,#878,.T.);
#732=EDGE_CURVE('',#877,#869,#879,.T.);
#733=EDGE_CURVE('',#880,#864,#881,.T.);
#734=EDGE_CURVE('',#869,#880,#882,.T.);
#735=EDGE_CURVE('',#883,#877,#884,.T.);
#736=EDGE_CURVE('',#880,#883,#885,.T.);
#737=EDGE_CURVE('',#883,#886,#887,.T.);
#738=EDGE_CURVE('',#886,#888,#889,.T.);
#739=EDGE_CURVE('',#888,#890,#891,.T.);
#740=EDGE_CURVE('',#890,#861,#892,.T.);
#741=EDGE_CURVE('',#871,#890,#893,.T.);
#742=EDGE_CURVE('',#875,#886,#894,.T.);
#743=EDGE_CURVE('',#888,#873,#895,.T.);
#744=VERTEX_POINT('',#896);
#745=VERTEX_POINT('',#897);
#746=LINE('',#898,#899);
#747=VERTEX_POINT('',#900);
#748=LINE('',#901,#902);
#749=VERTEX_POINT('',#903);
#750=LINE('',#904,#905);
#751=LINE('',#906,#907);
#752=VERTEX_POINT('',#908);
#753=CIRCLE('',#909,0.02);
#754=VERTEX_POINT('',#910);
#755=LINE('',#911,#912);
#756=CIRCLE('',#913,0.02);
#757=VERTEX_POINT('',#914);
#758=CIRCLE('',#915,0.02);
#759=CIRCLE('',#916,0.02);
#760=VERTEX_POINT('',#917);
#761=LINE('',#918,#919);
#762=VERTEX_POINT('',#920);
#763=CIRCLE('',#921,0.02);
#764=LINE('',#922,#923);
#765=VERTEX_POINT('',#924);
#766=CIRCLE('',#925,0.02);
#767=CIRCLE('',#926,0.02);
#768=VERTEX_POINT('',#927);
#769=VERTEX_POINT('',#928);
#770=CIRCLE('',#929,0.02);
#771=LINE('',#930,#931);
#772=LINE('',#932,#933);
#773=LINE('',#934,#935);
#774=VERTEX_POINT('',#936);
#775=VERTEX_POINT('',#937);
#776=CIRCLE('',#938,0.02);
#777=VERTEX_POINT('',#939);
#778=LINE('',#940,#941);
#779=VERTEX_POINT('',#942);
#780=CIRCLE('',#943,0.02);
#781=LINE('',#944,#945);
#782=LINE('',#946,#947);
#783=LINE('',#948,#949);
#784=VERTEX_POINT('',#950);
#785=VERTEX_POINT('',#951);
#786=CIRCLE('',#952,0.02);
#787=LINE('',#953,#954);
#788=VERTEX_POINT('',#955);
#789=CIRCLE('',#956,0.02);
#790=LINE('',#957,#958);
#791=LINE('',#959,#960);
#792=LINE('',#961,#962);
#793=CIRCLE('',#963,0.02);
#794=CIRCLE('',#964,0.02);
#795=VERTEX_POINT('',#965);
#796=CIRCLE('',#966,0.02);
#797=LINE('',#967,#968);
#798=LINE('',#969,#970);
#799=CIRCLE('',#971,0.02);
#800=VERTEX_POINT('',#972);
#801=VERTEX_POINT('',#973);
#802=LINE('',#974,#975);
#803=VERTEX_POINT('',#976);
#804=LINE('',#977,#978);
#805=VERTEX_POINT('',#979);
#806=LINE('',#980,#981);
#807=LINE('',#982,#983);
#808=VERTEX_POINT('',#984);
#809=CIRCLE('',#985,0.02);
#810=VERTEX_POINT('',#986);
#811=LINE('',#987,#988);
#812=CIRCLE('',#989,0.02);
#813=VERTEX_POINT('',#990);
#814=VERTEX_POINT('',#991);
#815=CIRCLE('',#992,0.02);
#816=VERTEX_POINT('',#993);
#817=CIRCLE('',#994,0.02);
#818=CIRCLE('',#995,0.02);
#819=VERTEX_POINT('',#996);
#820=CIRCLE('',#997,0.02);
#821=VERTEX_POINT('',#998);
#822=LINE('',#999,#1000);
#823=CIRCLE('',#1001,0.02);
#824=VERTEX_POINT('',#1002);
#825=LINE('',#1003,#1004);
#826=LINE('',#1005,#1006);
#827=LINE('',#1007,#1008);
#828=VERTEX_POINT('',#1009);
#829=VERTEX_POINT('',#1010);
#830=LINE('',#1011,#1012);
#831=CIRCLE('',#1013,0.02);
#832=VERTEX_POINT('',#1014);
#833=LINE('',#1015,#1016);
#834=CIRCLE('',#1017,0.02);
#835=VERTEX_POINT('',#1018);
#836=CIRCLE('',#1019,0.02);
#837=VERTEX_POINT('',#1020);
#838=CIRCLE('',#1021,0.02);
#839=LINE('',#1022,#1023);
#840=LINE('',#1024,#1025);
#841=VERTEX_POINT('',#1026);
#842=LINE('',#1027,#1028);
#843=LINE('',#1029,#1030);
#844=CIRCLE('',#1031,0.02);
#845=VERTEX_POINT('',#1032);
#846=LINE('',#1033,#1034);
#847=LINE('',#1035,#1036);
#848=LINE('',#1037,#1038);
#849=CIRCLE('',#1039,0.02);
#850=VERTEX_POINT('',#1040);
#851=CIRCLE('',#1041,0.02);
#852=LINE('',#1042,#1043);
#853=CIRCLE('',#1044,0.02);
#854=CIRCLE('',#1045,0.02);
#855=LINE('',#1046,#1047);
#856=VERTEX_POINT('',#1048);
#857=VERTEX_POINT('',#1049);
#858=LINE('',#1050,#1051);
#859=VERTEX_POINT('',#1052);
#860=LINE('',#1053,#1054);
#861=VERTEX_POINT('',#1055);
#862=LINE('',#1056,#1057);
#863=LINE('',#1058,#1059);
#864=VERTEX_POINT('',#1060);
#865=CIRCLE('',#1061,0.02);
#866=VERTEX_POINT('',#1062);
#867=CIRCLE('',#1063,0.02);
#868=LINE('',#1064,#1065);
#869=VERTEX_POINT('',#1066);
#870=LINE('',#1067,#1068);
#871=VERTEX_POINT('',#1069);
#872=CIRCLE('',#1070,0.02);
#873=VERTEX_POINT('',#1071);
#874=LINE('',#1072,#1073);
#875=VERTEX_POINT('',#1074);
#876=CIRCLE('',#1075,0.02);
#877=VERTEX_POINT('',#1076);
#878=LINE('',#1077,#1078);
#879=CIRCLE('',#1079,0.02);
#880=VERTEX_POINT('',#1080);
#881=LINE('',#1081,#1082);
#882=LINE('',#1083,#1084);
#883=VERTEX_POINT('',#1085);
#884=LINE('',#1086,#1087);
#885=CIRCLE('',#1088,0.02);
#886=VERTEX_POINT('',#1089);
#887=LINE('',#1090,#1091);
#888=VERTEX_POINT('',#1092);
#889=CIRCLE('',#1093,0.02);
#890=VERTEX_POINT('',#1094);
#891=LINE('',#1095,#1096);
#892=CIRCLE('',#1097,0.02);
#893=LINE('',#1098,#1099);
#894=LINE('',#1100,#1101);
#895=LINE('',#1102,#1103);
#896=CARTESIAN_POINT('',(2.035,-2.54,3.18));
#897=CARTESIAN_POINT('',(2.035,-2.54,0.0200000000000009));
#898=CARTESIAN_POINT('',(2.035,-2.54,1.8));
#899=VECTOR('',#1104,1.0);
#900=CARTESIAN_POINT('',(2.775,-2.54,0.0200000000000009));
#901=CARTESIAN_POINT('',(2.795,-2.54,0.0200000000000009));
#902=VECTOR('',#1105,1.0);
#903=CARTESIAN_POINT('',(2.775,-2.54,3.18));
#904=CARTESIAN_POINT('',(2.775,-2.54,1.8));
#905=VECTOR('',#1106,1.0);
#906=CARTESIAN_POINT('',(2.795,-2.54,3.18));
#907=VECTOR('',#1107,1.0);
#908=CARTESIAN_POINT('',(2.775,-2.52,3.2));
#909=AXIS2_PLACEMENT_3D('',#1108,#1109,#1110);
#910=CARTESIAN_POINT('',(2.035,-2.52,3.2));
#911=CARTESIAN_POINT('',(2.795,-2.52,3.2));
#912=VECTOR('',#1111,1.0);
#913=AXIS2_PLACEMENT_3D('',#1112,#1113,#1114);
#914=CARTESIAN_POINT('',(2.795,-2.52,3.18));
#915=AXIS2_PLACEMENT_3D('',#1115,#1116,#1117);
#916=AXIS2_PLACEMENT_3D('',#1118,#1119,#1120);
#917=CARTESIAN_POINT('',(2.795,2.52,3.18));
#918=CARTESIAN_POINT('',(2.795,-2.54,3.18));
#919=VECTOR('',#1121,1.0);
#920=CARTESIAN_POINT('',(2.775,2.52,3.2));
#921=AXIS2_PLACEMENT_3D('',#1122,#1123,#1124);
#922=CARTESIAN_POINT('',(2.775,2.54,3.2));
#923=VECTOR('',#1125,1.0);
#924=CARTESIAN_POINT('',(2.775,2.54,3.18));
#925=AXIS2_PLACEMENT_3D('',#1126,#1127,#1128);
#926=AXIS2_PLACEMENT_3D('',#1129,#1130,#1131);
#927=CARTESIAN_POINT('',(2.035,2.52,3.2));
#928=CARTESIAN_POINT('',(2.035,2.54,3.18));
#929=AXIS2_PLACEMENT_3D('',#1132,#1133,#1134);
#930=CARTESIAN_POINT('',(2.795,2.52,3.2));
#931=VECTOR('',#1135,1.0);
#932=CARTESIAN_POINT('',(2.795,2.54,3.18));
#933=VECTOR('',#1136,1.0);
#934=CARTESIAN_POINT('',(2.035,2.54,3.2));
#935=VECTOR('',#1137,1.0);
#936=CARTESIAN_POINT('',(2.775,2.54,0.0200000000000009));
#937=CARTESIAN_POINT('',(2.775,2.52,6.93889390390723E-16));
#938=AXIS2_PLACEMENT_3D('',#1138,#1139,#1140);
#939=CARTESIAN_POINT('',(2.035,2.52,6.93889390390723E-16));
#940=CARTESIAN_POINT('',(2.795,2.52,6.93889390390723E-16));
#941=VECTOR('',#1141,1.0);
#942=CARTESIAN_POINT('',(2.035,2.54,0.0200000000000009));
#943=AXIS2_PLACEMENT_3D('',#1142,#1143,#1144);
#944=CARTESIAN_POINT('',(2.795,2.54,0.0200000000000009));
#945=VECTOR('',#1145,1.0);
#946=CARTESIAN_POINT('',(2.775,2.54,6.93889390390723E-16));
#947=VECTOR('',#1146,1.0);
#948=CARTESIAN_POINT('',(2.035,2.54,6.93889390390723E-16));
#949=VECTOR('',#1147,1.0);
#950=CARTESIAN_POINT('',(2.795,-2.52,0.0200000000000009));
#951=CARTESIAN_POINT('',(2.775,-2.52,6.93889390390723E-16));
#952=AXIS2_PLACEMENT_3D('',#1148,#1149,#1150);
#953=CARTESIAN_POINT('',(2.775,-2.54,6.93889390390723E-16));
#954=VECTOR('',#1151,1.0);
#955=CARTESIAN_POINT('',(2.795,2.52,0.0200000000000009));
#956=AXIS2_PLACEMENT_3D('',#1152,#1153,#1154);
#957=CARTESIAN_POINT('',(2.795,2.54,0.0200000000000009));
#958=VECTOR('',#1155,1.0);
#959=CARTESIAN_POINT('',(2.795,-2.52,6.93889390390723E-16));
#960=VECTOR('',#1156,1.0);
#961=CARTESIAN_POINT('',(2.795,2.52,1.8));
#962=VECTOR('',#1157,1.0);
#963=AXIS2_PLACEMENT_3D('',#1158,#1159,#1160);
#964=AXIS2_PLACEMENT_3D('',#1161,#1162,#1163);
#965=CARTESIAN_POINT('',(2.035,-2.52,6.93889390390723E-16));
#966=AXIS2_PLACEMENT_3D('',#1164,#1165,#1166);
#967=CARTESIAN_POINT('',(2.795,-2.52,6.93889390390723E-16));
#968=VECTOR('',#1167,1.0);
#969=CARTESIAN_POINT('',(2.035,-2.54,6.93889390390723E-16));
#970=VECTOR('',#1168,1.0);
#971=AXIS2_PLACEMENT_3D('',#1169,#1170,#1171);
#972=CARTESIAN_POINT('',(-2.035,2.54,3.18));
#973=CARTESIAN_POINT('',(-2.035,2.54,0.0199999999999999));
#974=CARTESIAN_POINT('',(-2.035,2.54,1.8));
#975=VECTOR('',#1172,1.0);
#976=CARTESIAN_POINT('',(-2.775,2.54,0.0199999999999999));
#977=CARTESIAN_POINT('',(-2.795,2.54,0.0199999999999999));
#978=VECTOR('',#1173,1.0);
#979=CARTESIAN_POINT('',(-2.775,2.54,3.18));
#980=CARTESIAN_POINT('',(-2.775,2.54,1.8));
#981=VECTOR('',#1174,1.0);
#982=CARTESIAN_POINT('',(-2.795,2.54,3.18));
#983=VECTOR('',#1175,1.0);
#984=CARTESIAN_POINT('',(-2.775,2.52,3.2));
#985=AXIS2_PLACEMENT_3D('',#1176,#1177,#1178);
#986=CARTESIAN_POINT('',(-2.035,2.52,3.2));
#987=CARTESIAN_POINT('',(-2.795,2.52,3.2));
#988=VECTOR('',#1179,1.0);
#989=AXIS2_PLACEMENT_3D('',#1180,#1181,#1182);
#990=CARTESIAN_POINT('',(-2.775,-2.54,0.0199999999999999));
#991=CARTESIAN_POINT('',(-2.795,-2.52,0.0199999999999999));
#992=AXIS2_PLACEMENT_3D('',#1183,#1184,#1185);
#993=CARTESIAN_POINT('',(-2.775,-2.52,-3.46944695195361E-16));
#994=AXIS2_PLACEMENT_3D('',#1186,#1187,#1188);
#995=AXIS2_PLACEMENT_3D('',#1189,#1190,#1191);
#996=CARTESIAN_POINT('',(-2.035,2.52,-3.46944695195361E-16));
#997=AXIS2_PLACEMENT_3D('',#1192,#1193,#1194);
#998=CARTESIAN_POINT('',(-2.775,2.52,-3.46944695195361E-16));
#999=CARTESIAN_POINT('',(-2.795,2.52,-3.46944695195361E-16));
#1000=VECTOR('',#1195,1.0);
#1001=AXIS2_PLACEMENT_3D('',#1196,#1197,#1198);
#1002=CARTESIAN_POINT('',(-2.035,-2.52,-3.46944695195361E-16));
#1003=CARTESIAN_POINT('',(-2.035,2.54,-3.46944695195361E-16));
#1004=VECTOR('',#1199,1.0);
#1005=CARTESIAN_POINT('',(-2.795,-2.52,-3.46944695195361E-16));
#1006=VECTOR('',#1200,1.0);
#1007=CARTESIAN_POINT('',(-2.775,2.54,-3.46944695195361E-16));
#1008=VECTOR('',#1201,1.0);
#1009=CARTESIAN_POINT('',(-2.035,-2.54,0.0199999999999999));
#1010=CARTESIAN_POINT('',(-2.035,-2.54,3.18));
#1011=CARTESIAN_POINT('',(-2.035,-2.54,-3.46944695195361E-16));
#1012=VECTOR('',#1202,1.0);
#1013=AXIS2_PLACEMENT_3D('',#1203,#1204,#1205);
#1014=CARTESIAN_POINT('',(-2.035,-2.52,3.2));
#1015=CARTESIAN_POINT('',(-2.035,-2.54,3.2));
#1016=VECTOR('',#1206,1.0);
#1017=AXIS2_PLACEMENT_3D('',#1207,#1208,#1209);
#1018=CARTESIAN_POINT('',(-2.795,2.52,3.18));
#1019=AXIS2_PLACEMENT_3D('',#1210,#1211,#1212);
#1020=CARTESIAN_POINT('',(-2.795,2.52,0.0199999999999999));
#1021=AXIS2_PLACEMENT_3D('',#1213,#1214,#1215);
#1022=CARTESIAN_POINT('',(-2.795,2.52,-3.46944695195361E-16));
#1023=VECTOR('',#1216,1.0);
#1024=CARTESIAN_POINT('',(-2.795,-2.54,0.0199999999999999));
#1025=VECTOR('',#1217,1.0);
#1026=CARTESIAN_POINT('',(-2.795,-2.52,3.18));
#1027=CARTESIAN_POINT('',(-2.795,-2.52,1.8));
#1028=VECTOR('',#1218,1.0);
#1029=CARTESIAN_POINT('',(-2.795,2.54,3.18));
#1030=VECTOR('',#1219,1.0);
#1031=AXIS2_PLACEMENT_3D('',#1220,#1221,#1222);
#1032=CARTESIAN_POINT('',(-2.775,-2.54,3.18));
#1033=CARTESIAN_POINT('',(-2.775,-2.54,-3.46944695195361E-16));
#1034=VECTOR('',#1223,1.0);
#1035=CARTESIAN_POINT('',(-2.795,-2.54,0.0199999999999999));
#1036=VECTOR('',#1224,1.0);
#1037=CARTESIAN_POINT('',(-2.795,-2.54,3.18));
#1038=VECTOR('',#1225,1.0);
#1039=AXIS2_PLACEMENT_3D('',#1226,#1227,#1228);
#1040=CARTESIAN_POINT('',(-2.775,-2.52,3.2));
#1041=AXIS2_PLACEMENT_3D('',#1229,#1230,#1231);
#1042=CARTESIAN_POINT('',(-2.775,-2.54,3.2));
#1043=VECTOR('',#1232,1.0);
#1044=AXIS2_PLACEMENT_3D('',#1233,#1234,#1235);
#1045=AXIS2_PLACEMENT_3D('',#1236,#1237,#1238);
#1046=CARTESIAN_POINT('',(-2.795,-2.52,3.2));
#1047=VECTOR('',#1239,1.0);
#1048=CARTESIAN_POINT('',(2.035,-2.54,3.18));
#1049=CARTESIAN_POINT('',(2.035,-2.54,0.0200000000000001));
#1050=CARTESIAN_POINT('',(2.035,-2.54,1.8));
#1051=VECTOR('',#1240,1.0);
#1052=CARTESIAN_POINT('',(-2.035,-2.54,3.18));
#1053=CARTESIAN_POINT('',(-2.035,-2.54,3.18));
#1054=VECTOR('',#1241,1.0);
#1055=CARTESIAN_POINT('',(-2.035,-2.54,0.0200000000000001));
#1056=CARTESIAN_POINT('',(-2.035,-2.54,1.8));
#1057=VECTOR('',#1242,1.0);
#1058=CARTESIAN_POINT('',(-2.035,-2.54,0.0200000000000001));
#1059=VECTOR('',#1243,1.0);
#1060=CARTESIAN_POINT('',(-2.035,-2.52,3.2));
#1061=AXIS2_PLACEMENT_3D('',#1244,#1245,#1246);
#1062=CARTESIAN_POINT('',(2.035,-2.52,3.2));
#1063=AXIS2_PLACEMENT_3D('',#1247,#1248,#1249);
#1064=CARTESIAN_POINT('',(2.035,-2.52,3.2));
#1065=VECTOR('',#1250,1.0);
#1066=CARTESIAN_POINT('',(2.035,2.52,3.2));
#1067=CARTESIAN_POINT('',(2.035,-2.54,3.2));
#1068=VECTOR('',#1251,1.0);
#1069=CARTESIAN_POINT('',(2.035,-2.52,0.0));
#1070=AXIS2_PLACEMENT_3D('',#1252,#1253,#1254);
#1071=CARTESIAN_POINT('',(2.035,2.52,0.0));
#1072=CARTESIAN_POINT('',(2.035,-2.54,0.0));
#1073=VECTOR('',#1255,1.0);
#1074=CARTESIAN_POINT('',(2.035,2.54,0.0200000000000001));
#1075=AXIS2_PLACEMENT_3D('',#1256,#1257,#1258);
#1076=CARTESIAN_POINT('',(2.035,2.54,3.18));
#1077=CARTESIAN_POINT('',(2.035,2.54,1.8));
#1078=VECTOR('',#1259,1.0);
#1079=AXIS2_PLACEMENT_3D('',#1260,#1261,#1262);
#1080=CARTESIAN_POINT('',(-2.035,2.52,3.2));
#1081=CARTESIAN_POINT('',(-2.035,2.54,3.2));
#1082=VECTOR('',#1263,1.0);
#1083=CARTESIAN_POINT('',(-2.035,2.52,3.2));
#1084=VECTOR('',#1264,1.0);
#1085=CARTESIAN_POINT('',(-2.035,2.54,3.18));
#1086=CARTESIAN_POINT('',(2.035,2.54,3.18));
#1087=VECTOR('',#1265,1.0);
#1088=AXIS2_PLACEMENT_3D('',#1266,#1267,#1268);
#1089=CARTESIAN_POINT('',(-2.035,2.54,0.0200000000000001));
#1090=CARTESIAN_POINT('',(-2.035,2.54,1.8));
#1091=VECTOR('',#1269,1.0);
#1092=CARTESIAN_POINT('',(-2.035,2.52,0.0));
#1093=AXIS2_PLACEMENT_3D('',#1270,#1271,#1272);
#1094=CARTESIAN_POINT('',(-2.035,-2.52,0.0));
#1095=CARTESIAN_POINT('',(-2.035,2.54,0.0));
#1096=VECTOR('',#1273,1.0);
#1097=AXIS2_PLACEMENT_3D('',#1274,#1275,#1276);
#1098=CARTESIAN_POINT('',(2.035,-2.52,0.0));
#1099=VECTOR('',#1277,1.0);
#1100=CARTESIAN_POINT('',(2.035,2.54,0.0200000000000001));
#1101=VECTOR('',#1278,1.0);
#1102=CARTESIAN_POINT('',(2.035,2.52,0.0));
#1103=VECTOR('',#1279,1.0);
#1104=DIRECTION('',(-0.0,0.0,-1.0));
#1105=DIRECTION('',(1.0,1.60812264967664E-16,-0.0));
#1106=DIRECTION('',(0.0,0.0,1.0));
#1107=DIRECTION('',(-1.0,-1.60812264967664E-16,0.0));
#1108=CARTESIAN_POINT('',(2.775,-2.52,3.18));
#1109=DIRECTION('',(1.0,1.60812264967664E-16,0.0));
#1110=DIRECTION('',(-0.0,0.0,-1.0));
#1111=DIRECTION('',(1.0,1.60812264967664E-16,-0.0));
#1112=CARTESIAN_POINT('',(2.035,-2.52,3.18));
#1113=DIRECTION('',(-1.0,-1.60812264967664E-16,-0.0));
#1114=DIRECTION('',(0.0,0.0,-1.0));
#1115=CARTESIAN_POINT('',(2.775,-2.52,3.18));
#1116=DIRECTION('',(-1.60812264967664E-16,1.0,0.0));
#1117=DIRECTION('',(0.0,0.0,1.0));
#1118=CARTESIAN_POINT('',(2.775,-2.52,3.18));
#1119=DIRECTION('',(5.42101086242751E-15,8.71765035201276E-31,-1.0));
#1120=DIRECTION('',(1.0,1.60812264967664E-16,5.42101086242751E-15));
#1121=DIRECTION('',(1.60812264967664E-16,-1.0,0.0));
#1122=CARTESIAN_POINT('',(2.775,2.52,3.18));
#1123=DIRECTION('',(-1.60812264967664E-16,1.0,0.0));
#1124=DIRECTION('',(0.0,0.0,-1.0));
#1125=DIRECTION('',(-1.60812264967664E-16,1.0,0.0));
#1126=CARTESIAN_POINT('',(2.775,2.52,3.18));
#1127=DIRECTION('',(1.0,1.60812264967664E-16,0.0));
#1128=DIRECTION('',(-0.0,0.0,-1.0));
#1129=CARTESIAN_POINT('',(2.775,2.52,3.18));
#1130=DIRECTION('',(8.71765035201276E-31,-5.42101086242751E-15,-1.0));
#1131=DIRECTION('',(-1.60812264967664E-16,1.0,-5.42101086242751E-15));
#1132=CARTESIAN_POINT('',(2.035,2.52,3.18));
#1133=DIRECTION('',(-1.0,-1.60812264967664E-16,-0.0));
#1134=DIRECTION('',(0.0,0.0,-1.0));
#1135=DIRECTION('',(-1.0,-1.60812264967664E-16,0.0));
#1136=DIRECTION('',(1.0,1.60812264967664E-16,-0.0));
#1137=DIRECTION('',(1.60812264967664E-16,-1.0,0.0));
#1138=CARTESIAN_POINT('',(2.775,2.52,0.0200000000000009));
#1139=DIRECTION('',(-1.0,-1.60812264967664E-16,-0.0));
#1140=DIRECTION('',(0.0,0.0,-1.0));
#1141=DIRECTION('',(1.0,1.60812264967664E-16,-0.0));
#1142=CARTESIAN_POINT('',(2.035,2.52,0.0200000000000009));
#1143=DIRECTION('',(-1.0,-1.60812264967664E-16,-0.0));
#1144=DIRECTION('',(0.0,0.0,-1.0));
#1145=DIRECTION('',(-1.0,-1.60812264967664E-16,0.0));
#1146=DIRECTION('',(0.0,0.0,-1.0));
#1147=DIRECTION('',(0.0,0.0,1.0));
#1148=CARTESIAN_POINT('',(2.775,-2.52,0.0200000000000009));
#1149=DIRECTION('',(-1.60812264967664E-16,1.0,0.0));
#1150=DIRECTION('',(0.0,0.0,1.0));
#1151=DIRECTION('',(1.60812264967664E-16,-1.0,-0.0));
#1152=CARTESIAN_POINT('',(2.775,2.52,0.0200000000000009));
#1153=DIRECTION('',(-1.60812264967664E-16,1.0,0.0));
#1154=DIRECTION('',(0.0,0.0,-1.0));
#1155=DIRECTION('',(-1.60812264967664E-16,1.0,0.0));
#1156=DIRECTION('',(-0.0,0.0,-1.0));
#1157=DIRECTION('',(0.0,0.0,1.0));
#1158=CARTESIAN_POINT('',(2.775,-2.52,0.0200000000000009));
#1159=DIRECTION('',(0.0,-0.0,-1.0));
#1160=DIRECTION('',(1.60812264967664E-16,-1.0,0.0));
#1161=CARTESIAN_POINT('',(2.775,-2.52,0.0200000000000009));
#1162=DIRECTION('',(1.0,1.60812264967664E-16,0.0));
#1163=DIRECTION('',(-0.0,0.0,-1.0));
#1164=CARTESIAN_POINT('',(2.035,-2.52,0.0200000000000009));
#1165=DIRECTION('',(-1.0,-1.60812264967664E-16,-0.0));
#1166=DIRECTION('',(0.0,0.0,-1.0));
#1167=DIRECTION('',(-1.0,-1.60812264967664E-16,0.0));
#1168=DIRECTION('',(-1.60812264967664E-16,1.0,0.0));
#1169=CARTESIAN_POINT('',(2.775,2.52,0.0200000000000009));
#1170=DIRECTION('',(0.0,-0.0,-1.0));
#1171=DIRECTION('',(1.60812264967664E-16,-1.0,0.0));
#1172=DIRECTION('',(3.69762521412343E-17,6.93889390390724E-18,-1.0));
#1173=DIRECTION('',(-1.0,-1.0416222542826E-16,-3.69762521412343E-17));
#1174=DIRECTION('',(-3.69762521412343E-17,-6.93889390390724E-18,1.0));
#1175=DIRECTION('',(1.0,1.0416222542826E-16,3.69762521412343E-17));
#1176=CARTESIAN_POINT('',(-2.775,2.52,3.18));
#1177=DIRECTION('',(-1.0,-1.0416222542826E-16,-3.69762521412343E-17));
#1178=DIRECTION('',(3.69762521412343E-17,6.93889390390724E-18,-1.0));
#1179=DIRECTION('',(-1.0,-1.0416222542826E-16,-3.69762521412343E-17));
#1180=CARTESIAN_POINT('',(-2.035,2.52,3.18));
#1181=DIRECTION('',(1.0,1.0416222542826E-16,3.69762521412343E-17));
#1182=DIRECTION('',(3.69762521412343E-17,6.93889390390724E-18,-1.0));
#1183=CARTESIAN_POINT('',(-2.775,-2.52,0.0199999999999999));
#1184=DIRECTION('',(3.69762521412343E-17,6.93889390390723E-18,-1.0));
#1185=DIRECTION('',(-1.0416222542826E-16,1.0,6.93889390390723E-18));
#1186=CARTESIAN_POINT('',(-2.775,-2.52,0.0199999999999999));
#1187=DIRECTION('',(1.0416222542826E-16,-1.0,-6.93889390390722E-18));
#1188=DIRECTION('',(3.69762521412343E-17,6.93889390390723E-18,-1.0));
#1189=CARTESIAN_POINT('',(-2.775,-2.52,0.0199999999999999));
#1190=DIRECTION('',(1.0,1.0416222542826E-16,3.69762521412343E-17));
#1191=DIRECTION('',(3.69762521412343E-17,6.93889390390724E-18,-1.0));
#1192=CARTESIAN_POINT('',(-2.035,2.52,0.0199999999999999));
#1193=DIRECTION('',(1.0,1.0416222542826E-16,3.69762521412343E-17));
#1194=DIRECTION('',(3.69762521412343E-17,6.93889390390724E-18,-1.0));
#1195=DIRECTION('',(1.0,1.0416222542826E-16,3.69762521412343E-17));
#1196=CARTESIAN_POINT('',(-2.775,2.52,0.0199999999999999));
#1197=DIRECTION('',(-1.0,-1.0416222542826E-16,-3.69762521412343E-17));
#1198=DIRECTION('',(3.69762521412343E-17,6.93889390390724E-18,-1.0));
#1199=DIRECTION('',(1.0416222542826E-16,-1.0,-6.93889390390723E-18));
#1200=DIRECTION('',(-1.0,-1.0416222542826E-16,-3.69762521412343E-17));
#1201=DIRECTION('',(-1.0416222542826E-16,1.0,6.93889390390723E-18));
#1202=DIRECTION('',(-3.69762521412343E-17,-6.93889390390724E-18,1.0));
#1203=CARTESIAN_POINT('',(-2.035,-2.52,0.0199999999999999));
#1204=DIRECTION('',(1.0,1.0416222542826E-16,3.69762521412343E-17));
#1205=DIRECTION('',(3.69762521412343E-17,6.93889390390724E-18,-1.0));
#1206=DIRECTION('',(-1.0416222542826E-16,1.0,6.93889390390723E-18));
#1207=CARTESIAN_POINT('',(-2.035,-2.52,3.18));
#1208=DIRECTION('',(1.0,1.0416222542826E-16,3.69762521412343E-17));
#1209=DIRECTION('',(3.69762521412343E-17,6.93889390390724E-18,-1.0));
#1210=CARTESIAN_POINT('',(-2.775,2.52,3.18));
#1211=DIRECTION('',(-5.38403461028628E-15,6.93889390390667E-18,-1.0));
#1212=DIRECTION('',(-1.0,-1.0416222542826E-16,5.38403461028628E-15));
#1213=CARTESIAN_POINT('',(-2.775,2.52,0.0199999999999999));
#1214=DIRECTION('',(3.69762521412343E-17,6.93889390390723E-18,-1.0));
#1215=DIRECTION('',(-1.0416222542826E-16,1.0,6.93889390390723E-18));
#1216=DIRECTION('',(3.69762521412343E-17,6.93889390390724E-18,-1.0));
#1217=DIRECTION('',(1.0416222542826E-16,-1.0,-6.93889390390723E-18));
#1218=DIRECTION('',(-3.69762521412343E-17,-6.93889390390724E-18,1.0));
#1219=DIRECTION('',(-1.0416222542826E-16,1.0,6.93889390390723E-18));
#1220=CARTESIAN_POINT('',(-2.775,2.52,0.0199999999999999));
#1221=DIRECTION('',(1.0416222542826E-16,-1.0,-6.93889390390722E-18));
#1222=DIRECTION('',(-3.69762521412343E-17,-6.93889390390723E-18,1.0));
#1223=DIRECTION('',(3.69762521412343E-17,6.93889390390724E-18,-1.0));
#1224=DIRECTION('',(1.0,1.0416222542826E-16,3.69762521412343E-17));
#1225=DIRECTION('',(-1.0,-1.0416222542826E-16,-3.69762521412343E-17));
#1226=CARTESIAN_POINT('',(-2.775,2.52,3.18));
#1227=DIRECTION('',(1.0416222542826E-16,-1.0,-6.93889390390722E-18));
#1228=DIRECTION('',(-3.69762521412343E-17,-6.93889390390723E-18,1.0));
#1229=CARTESIAN_POINT('',(-2.775,-2.52,3.18));
#1230=DIRECTION('',(1.0416222542826E-16,-1.0,-6.93889390390722E-18));
#1231=DIRECTION('',(3.69762521412343E-17,6.93889390390723E-18,-1.0));
#1232=DIRECTION('',(1.0416222542826E-16,-1.0,-6.93889390390723E-18));
#1233=CARTESIAN_POINT('',(-2.775,-2.52,3.18));
#1234=DIRECTION('',(-1.0,-1.0416222542826E-16,-3.69762521412343E-17));
#1235=DIRECTION('',(3.69762521412343E-17,6.93889390390724E-18,-1.0));
#1236=CARTESIAN_POINT('',(-2.775,-2.52,3.18));
#1237=DIRECTION('',(3.69762521412337E-17,5.42794975633142E-15,-1.0));
#1238=DIRECTION('',(1.0416222542826E-16,-1.0,-5.42794975633142E-15));
#1239=DIRECTION('',(1.0,1.0416222542826E-16,3.69762521412343E-17));
#1240=DIRECTION('',(-0.0,0.0,-1.0));
#1241=DIRECTION('',(-1.0,-1.60812264967664E-16,0.0));
#1242=DIRECTION('',(-0.0,0.0,-1.0));
#1243=DIRECTION('',(1.0,1.60812264967664E-16,0.0));
#1244=CARTESIAN_POINT('',(-2.035,-2.52,3.18));
#1245=DIRECTION('',(-1.0,-1.60812264967664E-16,-0.0));
#1246=DIRECTION('',(0.0,0.0,-1.0));
#1247=CARTESIAN_POINT('',(2.035,-2.52,3.18));
#1248=DIRECTION('',(1.0,1.60812264967664E-16,-0.0));
#1249=DIRECTION('',(0.0,0.0,1.0));
#1250=DIRECTION('',(1.0,1.60812264967664E-16,0.0));
#1251=DIRECTION('',(-1.60812264967664E-16,1.0,0.0));
#1252=CARTESIAN_POINT('',(2.035,-2.52,0.0200000000000001));
#1253=DIRECTION('',(1.0,1.60812264967664E-16,-0.0));
#1254=DIRECTION('',(0.0,0.0,1.0));
#1255=DIRECTION('',(-1.60812264967664E-16,1.0,0.0));
#1256=CARTESIAN_POINT('',(2.035,2.52,0.0200000000000001));
#1257=DIRECTION('',(1.0,1.60812264967664E-16,-0.0));
#1258=DIRECTION('',(0.0,0.0,1.0));
#1259=DIRECTION('',(-0.0,0.0,-1.0));
#1260=CARTESIAN_POINT('',(2.035,2.52,3.18));
#1261=DIRECTION('',(1.0,1.60812264967664E-16,-0.0));
#1262=DIRECTION('',(0.0,0.0,1.0));
#1263=DIRECTION('',(1.60812264967664E-16,-1.0,0.0));
#1264=DIRECTION('',(-1.0,-1.60812264967664E-16,0.0));
#1265=DIRECTION('',(1.0,1.60812264967664E-16,-0.0));
#1266=CARTESIAN_POINT('',(-2.035,2.52,3.18));
#1267=DIRECTION('',(-1.0,-1.60812264967664E-16,-0.0));
#1268=DIRECTION('',(0.0,0.0,-1.0));
#1269=DIRECTION('',(-0.0,0.0,-1.0));
#1270=CARTESIAN_POINT('',(-2.035,2.52,0.0200000000000001));
#1271=DIRECTION('',(-1.0,-1.60812264967664E-16,-0.0));
#1272=DIRECTION('',(0.0,0.0,-1.0));
#1273=DIRECTION('',(1.60812264967664E-16,-1.0,0.0));
#1274=CARTESIAN_POINT('',(-2.035,-2.52,0.0200000000000001));
#1275=DIRECTION('',(-1.0,-1.60812264967664E-16,-0.0));
#1276=DIRECTION('',(0.0,0.0,-1.0));
#1277=DIRECTION('',(-1.0,-1.60812264967664E-16,0.0));
#1278=DIRECTION('',(-1.0,-1.60812264967664E-16,0.0));
#1279=DIRECTION('',(1.0,1.60812264967664E-16,-0.0));
ENDSEC;
END-ISO-10303-21;
